<svg xmlns="http://www.w3.org/2000/svg" viewBox="0 0 60 30">
  <clipPath id="s">
    <path d="M0,0 v30 h60 v-30 z"/>
  </clipPath>
  <clipPath id="t">
    <path d="M30,15 h30 v15 z v15 h-30 z h-30 v-15 z v-15 h30 z"/>
  </clipPath>
  <g clip-path="url(#s)">
    <path d="M0,0 v30 h60 v-30 z" fill="#012169"/>
    <path d="M0,0 L60,30 M60,0 L0,30" stroke="#fff" stroke-width="6"/>
    <path d="M0,0 L60,30 M60,0 L0,30" clip-path="url(#t)" stroke="#C8102E" stroke-width="4"/>
    <path d="M30,0 v30 M0,15 h60" stroke="#fff" stroke-width="10"/>
    <path d="M30,0 v30 M0,15 h60" stroke="#C8102E" stroke-width="6"/>
  </g>
</svg>
<svg xmlns="http://www.w3.org/2000/svg" viewBox="0 0 60 40">
  <defs>
    <clipPath id="a">
      <path d="M0 0h60v40H0z"/>
    </clipPath>
  </defs>
  <g clip-path="url(#a)">
    <path fill="#012169" d="M0 0h60v40H0z"/>
    <path fill="#fff" d="M0 0l60 40m0-40L0 40" stroke="#fff" stroke-width="8"/>
    <path fill="#C8102E" d="M0 0l60 40m0-40L0 40" stroke="#C8102E" stroke-width="4"/>
    <path fill="#fff" d="M25 0h10v40H25zM0 15h60v10H0z"/>
    <path fill="#C8102E" d="M27 0h6v40h-6zM0 17h60v6H0z"/>
  </g>
</svg>

